<?xml version="1.0" encoding="UTF-8"?>
<svg xmlns="http://www.w3.org/2000/svg" xmlns:xlink="http://www.w3.org/1999/xlink" width="384pt" height="384pt" viewBox="0 0 384 384" version="1.1">
<g id="surface1">
<path style=" stroke:none;fill-rule:nonzero;fill:rgba(0,0,0,0.54);fill-opacity:1;" d="M 57.601562 12.800781 L 326.398438 12.800781 C 351.21875 12.800781 371.199219 32.78125 371.199219 57.601562 L 371.199219 326.398438 C 371.199219 351.21875 351.21875 371.199219 326.398438 371.199219 L 57.601562 371.199219 C 32.78125 371.199219 12.800781 351.21875 12.800781 326.398438 L 12.800781 57.601562 C 12.800781 32.78125 32.78125 12.800781 57.601562 12.800781 Z M 57.601562 12.800781 "/>
<path style=" stroke:none;fill-rule:nonzero;fill:rgb(100%,100%,100%);fill-opacity:1;" d="M 84.792969 178.0625 C 84.890625 161.761719 71.773438 148.800781 55.472656 148.800781 L 12.792969 148.800781 L 12.792969 168.800781 L 55.472656 168.800781 C 60.976562 168.800781 65.59375 172.792969 65.59375 178.296875 L 65.59375 207.296875 C 65.59375 212.800781 60.976562 217.601562 55.472656 217.601562 L 12.792969 217.601562 L 12.792969 236.800781 L 55.472656 236.800781 C 71.773438 236.800781 84.792969 223.597656 84.792969 207.296875 L 84.792969 193.753906 C 152.238281 194.71875 171.863281 212.253906 193.328125 231.019531 C 214 249.101562 237.183594 268.53125 297.589844 269.007812 L 297.59375 275.65625 C 297.601562 291.957031 310.953125 305.601562 327.253906 305.601562 L 371.191406 305.601562 L 371.191406 284.800781 L 327.253906 284.800781 C 321.75 284.800781 317.59375 281.160156 317.59375 275.65625 L 317.59375 246.65625 C 317.59375 241.152344 321.75 236.800781 327.253906 236.800781 L 371.191406 236.800781 L 371.191406 217.601562 L 327.253906 217.601562 C 310.953125 217.601562 297.601562 230.355469 297.59375 246.65625 L 297.589844 253.527344 C 240.503906 253.335938 224.289062 237.507812 203.527344 219.351562 C 185.8125 203.859375 164.996094 186.828125 119.132812 180.632812 C 119.53125 180.289062 119.898438 179.957031 120.28125 179.605469 C 129.113281 171.503906 133.875 161.722656 138.535156 153.273438 C 143.191406 144.828125 147.574219 137.777344 154.753906 132.847656 C 160.582031 128.851562 168.863281 125.871094 181.59375 125.316406 L 181.59375 132.097656 C 181.597656 148.398438 194.746094 162.398438 211.046875 162.398438 L 328.914062 162.398438 C 345.214844 162.398438 358.394531 148.398438 358.394531 132.097656 L 358.394531 103.097656 C 358.394531 86.796875 345.214844 73.597656 328.914062 73.597656 L 211.046875 73.597656 C 194.746094 73.597656 181.585938 86.796875 181.59375 103.097656 L 181.597656 109.824219 C 166.234375 110.441406 154.589844 114.171875 145.996094 120.070312 C 135.574219 127.222656 129.820312 136.996094 124.96875 145.796875 C 120.113281 154.597656 116.007812 162.484375 109.800781 168.175781 C 104.398438 173.128906 96.925781 176.953125 84.792969 178.378906 Z M 211.042969 93.597656 L 328.910156 93.597656 C 334.414062 93.597656 338.390625 97.59375 338.390625 103.097656 L 338.390625 132.097656 C 338.390625 137.601562 334.410156 141.597656 328.910156 141.597656 L 211.042969 141.597656 C 205.539062 141.597656 200.792969 137.601562 200.792969 132.097656 L 200.792969 103.097656 C 200.792969 97.59375 205.539062 93.597656 211.042969 93.597656 Z M 211.042969 93.597656 "/>
</g>
</svg>
